<svg width="375" height="763" viewBox="0 0 375 763" fill="none" xmlns="http://www.w3.org/2000/svg">
<g filter="url(#filter0_ddd)">
<path fill-rule="evenodd" clip-rule="evenodd" d="M320 2H312C312 4.76142 309.761 7 307 7C304.239 7 302 4.76142 302 2H294C294 4.76142 291.761 7 289 7C286.239 7 284 4.76142 284 2H276C276 4.76142 273.761 7 271 7C268.239 7 266 4.76142 266 2H258C258 4.76142 255.761 7 253 7C250.239 7 248 4.76142 248 2H240C240 4.76142 237.761 7 235 7C232.239 7 230 4.76142 230 2H222C222 4.76142 219.761 7 217 7C214.239 7 212 4.76142 212 2H204C204 4.76142 201.761 7 199 7C196.239 7 194 4.76142 194 2H186C186 4.76142 183.761 7 181 7C178.239 7 176 4.76142 176 2H168C168 4.76142 165.761 7 163 7C160.239 7 158 4.76142 158 2H150C150 4.76142 147.761 7 145 7C142.239 7 140 4.76142 140 2H132C132 4.76142 129.761 7 127 7C124.239 7 122 4.76142 122 2H114C114 4.76142 111.761 7 109 7C106.239 7 104 4.76142 104 2H96C96 4.76142 93.7614 7 91 7C88.2386 7 86 4.76142 86 2H78C78 4.76142 75.7614 7 73 7C70.2386 7 68 4.76142 68 2H60C60 4.76142 57.7614 7 55 7C52.2386 7 50 4.76142 50 2H42C42 4.76142 39.7614 7 37 7C34.2386 7 32 4.76142 32 2H24C24 4.76142 21.7614 7 19 7C16.2386 7 14 4.76142 14 2H6C6 4.76142 3.76142 7 1 7C0.657534 7 0.32311 6.96557 0 6.89998V754.1C0.32311 754.034 0.657534 754 1 754C3.76142 754 6 756.239 6 759H14C14 756.239 16.2386 754 19 754C21.7614 754 24 756.239 24 759H32C32 756.239 34.2386 754 37 754C39.7614 754 42 756.239 42 759H50C50 756.239 52.2386 754 55 754C57.7614 754 60 756.239 60 759H68C68 756.239 70.2386 754 73 754C75.7614 754 78 756.239 78 759H86C86 756.239 88.2386 754 91 754C93.7614 754 96 756.239 96 759H104C104 756.239 106.239 754 109 754C111.761 754 114 756.239 114 759H122C122 756.239 124.239 754 127 754C129.761 754 132 756.239 132 759H140C140 756.239 142.239 754 145 754C147.761 754 150 756.239 150 759H158C158 756.239 160.239 754 163 754C165.761 754 168 756.239 168 759H176C176 756.239 178.239 754 181 754C183.761 754 186 756.239 186 759H194C194 756.239 196.239 754 199 754C201.761 754 204 756.239 204 759H212C212 756.239 214.239 754 217 754C219.761 754 222 756.239 222 759H230C230 756.239 232.239 754 235 754C237.761 754 240 756.239 240 759H248C248 756.239 250.239 754 253 754C255.761 754 258 756.239 258 759H266C266 756.239 268.239 754 271 754C273.761 754 276 756.239 276 759H284C284 756.239 286.239 754 289 754C291.761 754 294 756.239 294 759H302C302 756.239 304.239 754 307 754C309.761 754 312 756.239 312 759H320C320 756.239 322.239 754 325 754C327.761 754 330 756.239 330 759H338C338 756.239 340.239 754 343 754C345.761 754 348 756.239 348 759H356C356 756.239 358.239 754 361 754C363.761 754 366 756.239 366 759H374C374 757.874 374.372 756.835 375 756V5.00048C374.372 4.16474 374 3.12582 374 2H366C366 4.76142 363.761 7 361 7C358.239 7 356 4.76142 356 2H348C348 4.76142 345.761 7 343 7C340.239 7 338 4.76142 338 2H330C330 4.76142 327.761 7 325 7C322.239 7 320 4.76142 320 2Z" fill="#FFCB29"/>
</g>
<defs>
<filter id="filter0_ddd" x="-3" y="0" width="381" height="763" filterUnits="userSpaceOnUse" color-interpolation-filters="sRGB">
<feFlood flood-opacity="0" result="BackgroundImageFix"/>
<feColorMatrix in="SourceAlpha" type="matrix" values="0 0 0 0 0 0 0 0 0 0 0 0 0 0 0 0 0 0 127 0"/>
<feOffset dy="1"/>
<feGaussianBlur stdDeviation="1.5"/>
<feColorMatrix type="matrix" values="0 0 0 0 0 0 0 0 0 0 0 0 0 0 0 0 0 0 0.2 0"/>
<feBlend mode="normal" in2="BackgroundImageFix" result="effect1_dropShadow"/>
<feColorMatrix in="SourceAlpha" type="matrix" values="0 0 0 0 0 0 0 0 0 0 0 0 0 0 0 0 0 0 127 0"/>
<feOffset dy="2"/>
<feGaussianBlur stdDeviation="1"/>
<feColorMatrix type="matrix" values="0 0 0 0 0 0 0 0 0 0 0 0 0 0 0 0 0 0 0.12 0"/>
<feBlend mode="normal" in2="effect1_dropShadow" result="effect2_dropShadow"/>
<feColorMatrix in="SourceAlpha" type="matrix" values="0 0 0 0 0 0 0 0 0 0 0 0 0 0 0 0 0 0 127 0"/>
<feOffset/>
<feGaussianBlur stdDeviation="1"/>
<feColorMatrix type="matrix" values="0 0 0 0 0 0 0 0 0 0 0 0 0 0 0 0 0 0 0.14 0"/>
<feBlend mode="normal" in2="effect2_dropShadow" result="effect3_dropShadow"/>
<feBlend mode="normal" in="SourceGraphic" in2="effect3_dropShadow" result="shape"/>
</filter>
</defs>
</svg>
